<svg width="32" height="32" viewBox="0 0 32 32" fill="none" xmlns="http://www.w3.org/2000/svg">
<path d="M30.9117 9.84172C30.8949 8.57942 30.6586 7.32968 30.2134 6.14838C29.8273 5.15197 29.2376 4.24705 28.482 3.49144C27.7264 2.73582 26.8215 2.14614 25.8251 1.76005C24.659 1.32231 23.427 1.08562 22.1817 1.06005C20.5784 0.988384 20.0701 0.968384 16.0001 0.968384C11.9301 0.968384 11.4084 0.968384 9.81672 1.06005C8.57199 1.08581 7.34064 1.3225 6.17506 1.76005C5.17849 2.14587 4.27343 2.73546 3.51778 3.49111C2.76213 4.24675 2.17254 5.15181 1.78672 6.14838C1.34811 7.3136 1.11193 8.54524 1.08839 9.79005C1.01672 11.3951 0.995056 11.9034 0.995056 15.9734C0.995056 20.0434 0.995056 20.5634 1.08839 22.1567C1.11339 23.4034 1.34839 24.6334 1.78672 25.8017C2.17319 26.798 2.76322 27.7027 3.51912 28.458C4.27502 29.2133 5.18016 29.8027 6.17672 30.1884C7.33911 30.6437 8.57068 30.8974 9.81839 30.9384C11.4234 31.01 11.9317 31.0317 16.0017 31.0317C20.0717 31.0317 20.5934 31.0317 22.1851 30.9384C23.4303 30.9139 24.6623 30.6777 25.8284 30.2401C26.8245 29.8535 27.7292 29.2637 28.4848 28.5081C29.2403 27.7526 29.8302 26.8479 30.2167 25.8517C30.6551 24.6851 30.8901 23.4551 30.9151 22.2067C30.9867 20.6034 31.0084 20.0951 31.0084 16.0234C31.0051 11.9534 31.0051 11.4367 30.9117 9.84172ZM15.9901 23.67C11.7334 23.67 8.28506 20.2217 8.28506 15.9651C8.28506 11.7084 11.7334 8.26005 15.9901 8.26005C18.0336 8.26005 19.9933 9.07183 21.4383 10.5168C22.8833 11.9618 23.6951 13.9216 23.6951 15.9651C23.6951 18.0085 22.8833 19.9683 21.4383 21.4133C19.9933 22.8583 18.0336 23.67 15.9901 23.67ZM24.0017 9.77172C23.0067 9.77172 22.2051 8.96838 22.2051 7.97505C22.2051 7.73922 22.2515 7.5057 22.3418 7.28782C22.432 7.06993 22.5643 6.87196 22.731 6.7052C22.8978 6.53845 23.0958 6.40617 23.3137 6.31592C23.5315 6.22567 23.7651 6.17922 24.0009 6.17922C24.2367 6.17922 24.4702 6.22567 24.6881 6.31592C24.906 6.40617 25.104 6.53845 25.2707 6.7052C25.4375 6.87196 25.5698 7.06993 25.66 7.28782C25.7503 7.5057 25.7967 7.73922 25.7967 7.97505C25.7967 8.96838 24.9934 9.77172 24.0017 9.77172Z" fill="white"/>
<path d="M15.9901 20.97C18.7543 20.97 20.9951 18.7291 20.9951 15.965C20.9951 13.2008 18.7543 10.96 15.9901 10.96C13.2259 10.96 10.9851 13.2008 10.9851 15.965C10.9851 18.7291 13.2259 20.97 15.9901 20.97Z" fill="white"/>
</svg>
