<svg width="48" height="38" viewBox="0 0 48 38" fill="none" xmlns="http://www.w3.org/2000/svg">
<path d="M16 18H4.22C4.5917 15.5247 5.47558 13.1541 6.81518 11.0397C8.15478 8.92523 9.92065 7.11343 12 5.72L15.58 3.32L13.38 0L9.8 2.4C6.78656 4.40815 4.31542 7.12912 2.60586 10.3214C0.896312 13.5138 0.00121417 17.0787 0 20.7V34C0 35.0609 0.421427 36.0783 1.17157 36.8284C1.92172 37.5786 2.93913 38 4 38H16C17.0609 38 18.0783 37.5786 18.8284 36.8284C19.5786 36.0783 20 35.0609 20 34V22C20 20.9391 19.5786 19.9217 18.8284 19.1716C18.0783 18.4214 17.0609 18 16 18Z" fill="black"/>
<path d="M44 18H32.22C32.5917 15.5247 33.4756 13.1541 34.8152 11.0397C36.1548 8.92523 37.9207 7.11343 40 5.72L43.58 3.32L41.4 0L37.8 2.4C34.7866 4.40815 32.3154 7.12912 30.6059 10.3214C28.8963 13.5138 28.0012 17.0787 28 20.7V34C28 35.0609 28.4214 36.0783 29.1716 36.8284C29.9217 37.5786 30.9391 38 32 38H44C45.0609 38 46.0783 37.5786 46.8284 36.8284C47.5786 36.0783 48 35.0609 48 34V22C48 20.9391 47.5786 19.9217 46.8284 19.1716C46.0783 18.4214 45.0609 18 44 18Z" fill="black"/>
</svg>
